<svg xmlns="http://www.w3.org/2000/svg" viewBox="0 0 281 60" class="coupon-bg"><g fill="currentColor" fill-rule="evenodd"><g><g><g><g><g><path fill="#fff" d="M273 0c4.418 0 8 3.582 8 8v44c0 4.418-3.582 8-8 8H64.5c0-2.21-1.79-4-4-4s-4 1.79-4 4H8c-4.418 0-8-3.582-8-8V8c0-4.418 3.582-8 8-8h48.5c0 2.21 1.79 4 4 4s4-1.79 4-4H278z" transform="translate(-544 -2912) translate(80 2252) translate(0 460) translate(464) translate(0 200)"/><g stroke="#EEE" stroke-dasharray="2 4" stroke-linecap="square"><path d="M0.5 0L0.5 48" transform="translate(-544 -2912) translate(80 2252) translate(0 460) translate(464) translate(0 200) translate(60 8)"/></g></g></g></g></g></g></g></svg>