<svg xmlns="http://www.w3.org/2000/svg" xmlns:xlink="http://www.w3.org/1999/xlink" width="17" height="16" viewBox="0 0 17 16">
    <defs>
        <path id="on9025vs7a" d="M8 1.333c-3.676 0-6.667 2.99-6.667 6.667 0 3.676 2.991 6.667 6.667 6.667 3.676 0 6.667-2.99 6.667-6.667 0-3.676-2.991-6.667-6.667-6.667zm0 .82c3.224 0 5.846 2.623 5.846 5.847S11.224 13.846 8 13.846 2.154 11.224 2.154 8 4.776 2.154 8 2.154zm.077 4.994c-.227 0-.41.184-.41.41v3.488c0 .226.183.41.41.41.226 0 .41-.184.41-.41V7.557c0-.226-.184-.41-.41-.41zm.03-2.491c-.38 0-.687.307-.687.686 0 .379.307.686.686.686.38 0 .686-.307.686-.686 0-.38-.307-.686-.686-.686z"/>
    </defs>
    <g fill="none" fill-rule="evenodd">
        <g>
            <g>
                <g>
                    <g>
                        <g transform="translate(-1385 -218) translate(1102 200) translate(183.862 16) translate(99.636 2)">
                            <mask id="8ue4ijqchb" fill="#fff">
                                <use xlink:href="#on9025vs7a"/>
                            </mask>
                            <use fill="#787878" xlink:href="#on9025vs7a"/>
                            <g fill="#787878" mask="url(#8ue4ijqchb)">
                                <path d="M0 0H16V16H0z"/>
                            </g>
                        </g>
                    </g>
                </g>
            </g>
        </g>
    </g>
</svg>
